<svg xmlns="http://www.w3.org/2000/svg" direction="ltr" width="925.8365916965996" height="616.390625" viewBox="366.1634083034004 298 925.8365916965996 616.390625" stroke-linecap="round" stroke-linejoin="round" data-color-mode="light" class="tl-container tl-theme__force-sRGB tl-theme__light" style="background-color: transparent;"><defs><style>
</style></defs><g transform="matrix(1, 0, 0, 1, 400, 730)" opacity="1"><path fill="#ddedfa" d="M7,0 L853,0 Q860,0 860,7 L860,54.6953 Q860,61.6953 853,61.6953 L7,61.6953 Q0,61.6953 0,54.6953 L0,7 Q0,0 7,0 "/><path d="M7,0.0043 L852.6471,0.5228 Q859.6471,0.5271 859.5716,7.5267 L859.0695,54.1043 Q858.9941,61.1039 851.9941,61.1043 L7.7352,61.1591 Q0.7352,61.1595 0.7253,54.1595 L0.6594,7.2839 Q0.6496,0.2839 7.6496,0.2901 L853.1302,1.0356 Q860.1302,1.0418 860.133,8.0418 L860.1518,55.2474 Q860.1546,62.2474 853.1546,62.2454 L7.1189,62.0008 Q0.1189,61.9988 -0.0162,55.0001 L-0.9321,7.5421 Q-1.0671,0.5435 7,0.0043 " stroke="#4ba1f1" stroke-width="3.5" fill="none"/><text font-size="22" font-family="sans-serif" font-style="normal" font-weight="normal" dominant-baseline="mathematical" alignment-baseline="mathematical" stroke="rgb(249, 250, 251)" stroke-width="2" fill="rgb(249, 250, 251)"><tspan alignment-baseline="mathematical" x="16" y="27.375" unicode-bidi="plaintext">1.</tspan><tspan alignment-baseline="mathematical" x="30.859375" y="27.375" unicode-bidi="plaintext"> </tspan><tspan alignment-baseline="mathematical" x="38.40625" y="27.375" unicode-bidi="plaintext">设备接入</tspan></text><text font-size="22" font-family="sans-serif" font-style="normal" font-weight="normal" dominant-baseline="mathematical" alignment-baseline="mathematical" fill="#1d1d1d"><tspan alignment-baseline="mathematical" x="16" y="27.375" unicode-bidi="plaintext">1.</tspan><tspan alignment-baseline="mathematical" x="30.859375" y="27.375" unicode-bidi="plaintext"> </tspan><tspan alignment-baseline="mathematical" x="38.40625" y="27.375" unicode-bidi="plaintext">设备接入</tspan></text></g><g transform="matrix(1, 0, 0, 1, 330, 120)" opacity="1"><g transform="scale(1)"><defs><mask id="shape_Xb7clFXwmJEW04wD1Aun0_clip"><rect x="-31.8366" y="627.0137" width="1051.0691" height="201" fill="white"/></mask></defs><g fill="none" stroke="#e03131" stroke-width="3.5" stroke-linejoin="round" stroke-linecap="round" pointer-events="none"><g mask="url(#shape_Xb7clFXwmJEW04wD1Aun0_clip)"><rect x="-31.8366" y="627.0137" width="1051.0691" height="201" opacity="0"/><path d="M68.16340830340039,727.0136718749999L919.2325291311749,727.013671875" stroke-dasharray="none" stroke-dashoffset="none"/></g><path d="M 910.1392623914384 721.763671875 L 919.2325291311749 727.013671875 L 910.1392623914384 732.263671875"/></g></g></g><g transform="matrix(1, 0, 0, 1, 400, 650)" opacity="1"><path fill="#ddedfa" d="M7,0 L733,0 Q740,0 740,7 L740,54.6953 Q740,61.6953 733,61.6953 L7,61.6953 Q0,61.6953 0,54.6953 L0,7 Q0,0 7,0 "/><path d="M7,0.0069 L733.8893,0.7227 Q740.8893,0.7296 740.6821,7.7266 L739.281,55.0482 Q739.0739,62.0451 732.0739,62.0417 L6.5205,61.6859 Q-0.4795,61.6825 -0.3526,54.6837 L0.4942,7.9806 Q0.6211,0.9818 7.6211,0.9618 L732.3574,-1.1024 Q739.3573,-1.1223 739.4122,5.8775 L739.799,55.2654 Q739.8539,62.2652 732.8539,62.2624 L7.9678,61.972 Q0.9678,61.9692 0.936,54.9692 L0.7207,7.5957 Q0.6889,0.5958 7,0.0069 " stroke="#4ba1f1" stroke-width="3.5" fill="none"/><text font-size="22" font-family="sans-serif" font-style="normal" font-weight="normal" dominant-baseline="mathematical" alignment-baseline="mathematical" stroke="rgb(249, 250, 251)" stroke-width="2" fill="rgb(249, 250, 251)"><tspan alignment-baseline="mathematical" x="16" y="27.375" unicode-bidi="plaintext">2.</tspan><tspan alignment-baseline="mathematical" x="37.46875" y="27.375" unicode-bidi="plaintext"> </tspan><tspan alignment-baseline="mathematical" x="45.00390625" y="27.375" unicode-bidi="plaintext">系统接入</tspan></text><text font-size="22" font-family="sans-serif" font-style="normal" font-weight="normal" dominant-baseline="mathematical" alignment-baseline="mathematical" fill="#1d1d1d"><tspan alignment-baseline="mathematical" x="16" y="27.375" unicode-bidi="plaintext">2.</tspan><tspan alignment-baseline="mathematical" x="37.46875" y="27.375" unicode-bidi="plaintext"> </tspan><tspan alignment-baseline="mathematical" x="45.00390625" y="27.375" unicode-bidi="plaintext">系统接入</tspan></text></g><g transform="matrix(1, 0, 0, 1, 400, 570)" opacity="1"><path fill="#ddedfa" d="M7,0 L553,0 Q560,0 560,7 L560,54.6953 Q560,61.6953 553,61.6953 L7,61.6953 Q0,61.6953 0,54.6953 L0,7 Q0,0 7,0 "/><path d="M7,-0.003 L552.6505,-0.2343 Q559.6505,-0.2373 559.7771,6.7615 L560.6239,53.5737 Q560.7504,60.5726 553.7505,60.5954 L7.2636,62.3756 Q0.2636,62.3984 0.1553,55.3993 L-0.6065,6.1645 Q-0.7147,-0.8347 6.2853,-0.8377 L552.7515,-1.0743 Q559.7515,-1.0774 559.6823,5.9223 L559.1922,55.4524 Q559.123,62.4521 552.123,62.4289 L7.8709,60.6287 Q0.8709,60.6055 0.8189,53.6057 L0.477,7.5853 Q0.425,0.5855 7,-0.003 " stroke="#4ba1f1" stroke-width="3.5" fill="none"/><text font-size="22" font-family="sans-serif" font-style="normal" font-weight="normal" dominant-baseline="mathematical" alignment-baseline="mathematical" stroke="rgb(249, 250, 251)" stroke-width="2" fill="rgb(249, 250, 251)"><tspan alignment-baseline="mathematical" x="16" y="27.375" unicode-bidi="plaintext">3.</tspan><tspan alignment-baseline="mathematical" x="37.4453125" y="27.375" unicode-bidi="plaintext"> </tspan><tspan alignment-baseline="mathematical" x="44.9921875" y="27.375" unicode-bidi="plaintext">编码/解码</tspan></text><text font-size="22" font-family="sans-serif" font-style="normal" font-weight="normal" dominant-baseline="mathematical" alignment-baseline="mathematical" fill="#1d1d1d"><tspan alignment-baseline="mathematical" x="16" y="27.375" unicode-bidi="plaintext">3.</tspan><tspan alignment-baseline="mathematical" x="37.4453125" y="27.375" unicode-bidi="plaintext"> </tspan><tspan alignment-baseline="mathematical" x="44.9921875" y="27.375" unicode-bidi="plaintext">编码/解码</tspan></text></g><g transform="matrix(1, 0, 0, 1, 400, 490)" opacity="1"><path fill="#dbf0e0" d="M7,0 L163,0 Q170,0 170,7 L170,54.6953 Q170,61.6953 163,61.6953 L7,61.6953 Q0,61.6953 0,54.6953 L0,7 Q0,0 7,0 "/><path d="M6.9999,-0.0431 L162.8636,-1.0025 Q169.8634,-1.0456 169.9167,5.9542 L170.293,55.3662 Q170.3463,62.366 163.3463,62.3563 L6.0542,62.1377 Q-0.9458,62.128 -0.8482,55.1287 L-0.18,7.223 Q-0.0823,0.2237 6.9176,0.1881 L163.8495,-0.6101 Q170.8494,-0.6457 170.7425,6.3535 L170.0173,53.8257 Q169.9104,60.8249 162.9104,60.8141 L8.0496,60.5758 Q1.0496,60.565 0.9755,53.5654 L0.494,8.0565 Q0.42,1.0569 6.9999,-0.0431 " stroke="#4cb05e" stroke-width="3.5" fill="none"/><text font-size="22" font-family="sans-serif" font-style="normal" font-weight="normal" dominant-baseline="mathematical" alignment-baseline="mathematical" stroke="rgb(249, 250, 251)" stroke-width="2" fill="rgb(249, 250, 251)"><tspan alignment-baseline="mathematical" x="16" y="27.375" unicode-bidi="plaintext">4.</tspan><tspan alignment-baseline="mathematical" x="36.94140625" y="27.375" unicode-bidi="plaintext"> </tspan><tspan alignment-baseline="mathematical" x="44.4765625" y="27.375" unicode-bidi="plaintext">数据管理</tspan></text><text font-size="22" font-family="sans-serif" font-style="normal" font-weight="normal" dominant-baseline="mathematical" alignment-baseline="mathematical" fill="#1d1d1d"><tspan alignment-baseline="mathematical" x="16" y="27.375" unicode-bidi="plaintext">4.</tspan><tspan alignment-baseline="mathematical" x="36.94140625" y="27.375" unicode-bidi="plaintext"> </tspan><tspan alignment-baseline="mathematical" x="44.4765625" y="27.375" unicode-bidi="plaintext">数据管理</tspan></text></g><g transform="matrix(1, 0, 0, 1, 400, 410)" opacity="1"><path fill="#dbf0e0" d="M7,0 L233,0 Q240,0 240,7 L240,54.6953 Q240,61.6953 233,61.6953 L7,61.6953 Q0,61.6953 0,54.6953 L0,7 Q0,0 7,0 "/><path d="M7,-0.0242 L232.5091,-0.8035 Q239.509,-0.8277 239.6027,6.1716 L240.2633,55.5642 Q240.3569,62.5635 233.3569,62.5635 L5.8476,62.5631 Q-1.1524,62.5631 -0.9512,55.566 L0.4405,7.1688 Q0.6417,0.1717 7.6417,0.1649 L233.1929,-0.0566 Q240.1929,-0.0634 240.0407,6.9349 L238.9933,55.0767 Q238.841,62.0751 231.8411,62.0478 L7.9743,61.1752 Q0.9743,61.1479 0.7319,54.1521 L-0.904,6.9453 Q-1.1465,-0.0505 7,-0.0242 " stroke="#4cb05e" stroke-width="3.5" fill="none"/><text font-size="22" font-family="sans-serif" font-style="normal" font-weight="normal" dominant-baseline="mathematical" alignment-baseline="mathematical" stroke="rgb(249, 250, 251)" stroke-width="2" fill="rgb(249, 250, 251)"><tspan alignment-baseline="mathematical" x="16" y="27.375" unicode-bidi="plaintext">5.</tspan><tspan alignment-baseline="mathematical" x="35.41796875" y="27.375" unicode-bidi="plaintext"> </tspan><tspan alignment-baseline="mathematical" x="42.96484375" y="27.375" unicode-bidi="plaintext">通用功能</tspan></text><text font-size="22" font-family="sans-serif" font-style="normal" font-weight="normal" dominant-baseline="mathematical" alignment-baseline="mathematical" fill="#1d1d1d"><tspan alignment-baseline="mathematical" x="16" y="27.375" unicode-bidi="plaintext">5.</tspan><tspan alignment-baseline="mathematical" x="35.41796875" y="27.375" unicode-bidi="plaintext"> </tspan><tspan alignment-baseline="mathematical" x="42.96484375" y="27.375" unicode-bidi="plaintext">通用应用</tspan></text></g><g transform="matrix(1, 0, 0, 1, 400, 330)" opacity="1"><path fill="#ddedfa" d="M7,0 L673,0 Q680,0 680,7 L680,54.6953 Q680,61.6953 673,61.6953 L7,61.6953 Q0,61.6953 0,54.6953 L0,7 Q0,0 7,0 "/><path d="M7,0.0074 L673.2799,0.7146 Q680.2799,0.722 680.1148,7.72 L679.0122,54.4674 Q678.8471,61.4655 671.8471,61.4592 L7.8249,60.8657 Q0.8249,60.8595 0.785,53.8596 L0.5122,6.0262 Q0.4722,-0.9737 7.4722,-0.9636 L672.4666,-0.0013 Q679.4666,0.0088 679.612,7.0073 L680.5783,53.5347 Q680.7236,60.5332 673.7237,60.5485 L6.0059,62.0137 Q-0.9941,62.029 -0.8021,55.0316 L0.5031,7.4419 Q0.695,0.4446 7,0.0074 " stroke="#4ba1f1" stroke-width="3.5" fill="none"/><text font-size="22" font-family="sans-serif" font-style="normal" font-weight="normal" dominant-baseline="mathematical" alignment-baseline="mathematical" stroke="rgb(249, 250, 251)" stroke-width="2" fill="rgb(249, 250, 251)"><tspan alignment-baseline="mathematical" x="16" y="27.375" unicode-bidi="plaintext">6.</tspan><tspan alignment-baseline="mathematical" x="37.3984375" y="27.375" unicode-bidi="plaintext"> </tspan><tspan alignment-baseline="mathematical" x="44.9453125" y="27.375" unicode-bidi="plaintext">领域场景应用</tspan></text><text font-size="22" font-family="sans-serif" font-style="normal" font-weight="normal" dominant-baseline="mathematical" alignment-baseline="mathematical" fill="#1d1d1d"><tspan alignment-baseline="mathematical" x="16" y="27.375" unicode-bidi="plaintext">6.</tspan><tspan alignment-baseline="mathematical" x="37.3984375" y="27.375" unicode-bidi="plaintext"> </tspan><tspan alignment-baseline="mathematical" x="44.9453125" y="27.375" unicode-bidi="plaintext">领域场景应用</tspan></text></g><g transform="matrix(1, 0, 0, 1, 400, 850)" opacity="1"><text font-size="24" font-family="sans-serif" font-style="normal" font-weight="normal" dominant-baseline="mathematical" alignment-baseline="mathematical" stroke="rgb(249, 250, 251)" stroke-width="2" fill="rgb(249, 250, 251)"><tspan alignment-baseline="mathematical" x="0" y="12.375" unicode-bidi="plaintext">功能复杂性</tspan></text><text font-size="24" font-family="sans-serif" font-style="normal" font-weight="normal" dominant-baseline="mathematical" alignment-baseline="mathematical" fill="#e03131"><tspan alignment-baseline="mathematical" x="0" y="12.375" unicode-bidi="plaintext">功能复杂性</tspan></text></g></svg>